<?xml version="1.0" encoding="UTF-8"?> <svg xmlns="http://www.w3.org/2000/svg" width="933" height="243" viewBox="0 0 933 243" fill="none"><path d="M149.239 -0.000239212H0V49.9655H149.239V-0.000239212ZM99.499 149.897H149.248V99.9312C132.668 83.2821 116.079 66.6146 99.499 49.9655V149.897ZM0 149.897H49.7495V49.9747L0 99.9404V149.906V149.897ZM922.039 233.244C925.249 229.936 926.853 225.939 926.853 221.262C926.853 216.585 925.249 212.579 922.039 209.244C918.829 205.918 914.886 204.255 910.228 204.255C905.569 204.255 901.616 205.918 898.388 209.244C895.151 212.57 893.547 216.576 893.547 221.262C893.547 225.948 895.161 229.945 898.388 233.244C901.626 236.551 905.56 238.205 910.228 238.205C914.895 238.205 918.82 236.551 922.039 233.244ZM925.661 205.918C929.935 210.108 932.071 215.225 932.071 221.262C932.071 227.299 929.935 232.398 925.661 236.542C921.388 240.686 916.243 242.772 910.237 242.772C904.23 242.772 899.085 240.704 894.803 236.542C890.529 232.398 888.393 227.299 888.393 221.262C888.393 215.225 890.529 210.062 894.803 205.89C899.076 201.719 904.221 199.642 910.237 199.642C916.253 199.642 921.388 201.737 925.661 205.927V205.918ZM855.269 200.193H859.011C859.423 200.193 859.625 200.405 859.625 200.809V237.773H880.91C881.276 237.773 881.46 237.985 881.46 238.389V241.596C881.46 241.963 881.276 242.147 880.91 242.147H855.269C854.902 242.147 854.71 241.963 854.71 241.596V200.809C854.71 200.396 854.893 200.193 855.269 200.193ZM831.069 233.244C834.278 229.936 835.883 225.939 835.883 221.262C835.883 216.585 834.278 212.579 831.069 209.244C827.859 205.918 823.916 204.255 819.257 204.255C814.598 204.255 810.646 205.918 807.418 209.244C804.181 212.57 802.576 216.576 802.576 221.262C802.576 225.948 804.19 229.945 807.418 233.244C810.655 236.551 814.589 238.205 819.257 238.205C823.925 238.205 827.85 236.551 831.069 233.244ZM834.691 205.918C838.964 210.108 841.101 215.225 841.101 221.262C841.101 227.299 838.964 232.398 834.691 236.542C830.417 240.686 825.273 242.772 819.257 242.772C813.241 242.772 808.106 240.704 803.823 236.542C799.55 232.398 797.413 227.299 797.413 221.262C797.413 215.225 799.55 210.062 803.823 205.89C808.097 201.719 813.241 199.642 819.257 199.642C825.273 199.642 830.408 201.737 834.691 205.927V205.918ZM764.299 200.193H768.04C768.453 200.193 768.655 200.405 768.655 200.809V237.773H789.939C790.306 237.773 790.489 237.985 790.489 238.389V241.596C790.489 241.963 790.306 242.147 789.939 242.147H764.299C763.932 242.147 763.739 241.963 763.739 241.596V200.809C763.739 200.396 763.923 200.193 764.299 200.193ZM740.098 233.244C743.308 229.936 744.912 225.939 744.912 221.262C744.912 216.585 743.308 212.579 740.098 209.244C736.888 205.918 732.945 204.255 728.287 204.255C723.628 204.255 719.676 205.918 716.448 209.244C713.21 212.57 711.606 216.576 711.606 221.262C711.606 225.948 713.22 229.945 716.448 233.244C719.685 236.551 723.619 238.205 728.287 238.205C732.954 238.205 736.879 236.551 740.098 233.244ZM743.72 205.918C747.994 210.108 750.13 215.225 750.13 221.262C750.13 227.299 747.994 232.398 743.72 236.542C739.447 240.686 734.302 242.772 728.287 242.772C722.271 242.772 717.135 240.704 712.862 236.542C708.589 232.398 706.452 227.299 706.452 221.262C706.452 215.225 708.589 210.062 712.862 205.89C717.135 201.719 722.28 199.642 728.287 199.642C734.293 199.642 739.438 201.737 743.72 205.927V205.918ZM693.017 241.596L676.941 222.19L672.466 226.692V241.605C672.466 241.972 672.255 242.156 671.852 242.156H668.11C667.743 242.156 667.551 241.972 667.551 241.605V200.818C667.551 200.405 667.734 200.203 668.11 200.203H671.852C672.265 200.203 672.466 200.414 672.466 200.818V220.408L691.605 200.818C691.972 200.405 692.384 200.203 692.834 200.203H697.501C697.786 200.203 697.96 200.304 698.024 200.515C698.088 200.726 698.015 200.929 697.813 201.131L680.389 218.634L698.85 241.182C699.06 241.394 699.134 241.605 699.097 241.825C699.06 242.055 698.868 242.165 698.547 242.165H694.127C693.641 242.165 693.274 241.982 693.026 241.614L693.017 241.596ZM823.099 -0.000239212H928.568C929.586 -0.000239212 930.43 0.330538 931.081 0.992092C931.741 1.65365 932.062 2.41627 932.062 3.29834V24.8356C932.062 25.7177 931.732 26.4803 931.081 27.1419C930.421 27.8034 929.586 28.1342 928.568 28.1342H851.106V60.4401H917.188C918.068 60.4401 918.829 60.7709 919.48 61.4324C920.141 62.094 920.462 62.8566 920.462 63.7387V85.0554C920.462 86.0845 920.132 86.9207 919.48 87.5822C918.829 88.2438 918.059 88.5745 917.188 88.5745H851.106V121.763H928.568C930.907 121.763 932.071 122.865 932.071 125.061V146.378C932.071 147.26 931.741 148.023 931.09 148.684C930.43 149.346 929.595 149.676 928.578 149.676H823.109C822.082 149.676 821.247 149.346 820.596 148.684C819.936 148.023 819.615 147.26 819.615 146.378V3.29834C819.615 2.41627 819.945 1.65365 820.596 0.992092C821.247 0.330538 822.091 -0.000239212 823.109 -0.000239212H823.099ZM745.27 -0.000239212C761.447 -0.000239212 776.064 3.34429 789.123 10.0517C790.966 11.1911 791.462 12.6979 790.618 14.5448L780.824 35.0713C780.118 36.7803 778.696 37.2122 776.569 36.3577C763.648 30.661 753.01 27.8034 744.637 27.8034C732.01 27.8034 721.326 32.324 712.596 41.3745C703.866 50.4341 699.501 61.5059 699.501 74.6176C699.501 88.5837 703.682 100.023 712.055 108.936C720.427 117.839 731.285 122.305 744.628 122.305C756.687 122.305 766.977 119.53 775.496 113.971V96.2192H746.114C745.261 96.2192 744.518 95.8976 743.876 95.2544C743.243 94.6112 742.923 93.867 742.923 93.0125V72.0541C742.923 71.1995 743.243 70.4553 743.876 69.8121C744.509 69.169 745.261 68.8474 746.114 68.8474H801.255C803.383 68.8474 804.447 69.9132 804.447 72.0541V144.32C804.447 146.461 803.383 147.526 801.255 147.526H778.687C777.834 147.526 777.091 147.205 776.45 146.562C775.817 145.918 775.496 145.174 775.496 144.32V141.747C765.986 147.021 754.633 149.658 741.437 149.658C720.006 149.658 702.334 143.033 688.432 129.775C674.52 116.516 667.569 98.1303 667.569 74.6084C667.569 53.5122 675.126 35.8064 690.239 21.4727C705.351 7.14822 723.692 -0.0186157 745.27 -0.0186157V-0.000239212ZM545.227 26.5998V123.086H567.988C579.946 123.086 589.942 121.11 597.966 117.15C612.849 109.68 620.287 95.5392 620.287 74.737C620.287 60.0909 616.49 48.7343 608.906 40.667C600.148 31.295 586.732 26.5998 568.639 26.5998H545.227ZM652.447 74.7278C652.447 104.911 641.36 126.302 619.186 138.899C606.348 146.075 590.006 149.667 570.17 149.667H517.211C516.184 149.667 515.35 149.336 514.698 148.675C514.047 148.013 513.717 147.251 513.717 146.369V3.29834C513.717 2.41627 514.047 1.65365 514.698 0.992092C515.35 0.330538 516.193 -0.000239212 517.211 -0.000239212H573.013C599.708 -0.000239212 620.204 7.61682 634.501 22.8601C646.459 35.6043 652.447 52.8965 652.447 74.7278ZM470.314 -0.000239212H495.037C497.229 -0.000239212 498.32 1.10235 498.32 3.29834V146.369C498.32 148.565 497.22 149.667 495.037 149.667H470.314C469.287 149.667 468.452 149.336 467.801 148.675C467.15 148.013 466.82 147.251 466.82 146.369V3.29834C466.82 2.41627 467.15 1.65365 467.801 0.992092C468.452 0.330538 469.296 -0.000239212 470.314 -0.000239212ZM390.476 26.8203H357.215V70.9974H387.844C396.886 70.9974 403.306 69.757 407.102 67.2578C413.081 63.4538 416.071 57.3712 416.071 49.0191C416.071 40.667 413.301 34.8141 407.753 30.9917C403.379 28.2077 397.611 26.8203 390.467 26.8203H390.476ZM431.395 85.2851C427.598 88.5102 423.15 91.2208 418.052 93.4167L450.432 143.961C452.624 147.774 451.964 149.676 448.461 149.676H421.105C418.042 149.676 415.924 148.574 414.759 146.378L385.442 97.8087H357.215V146.378C357.215 148.574 356.115 149.676 353.932 149.676H329.209C328.181 149.676 327.347 149.346 326.696 148.684C326.036 148.023 325.715 147.26 325.715 146.378V3.29834C325.715 2.41627 326.045 1.65365 326.696 0.992092C327.356 0.330538 328.191 -0.000239212 329.209 -0.000239212H393.099C409.147 -0.000239212 421.692 3.37185 430.734 10.1068C442.252 18.606 448.02 31.4236 448.02 48.5689C448.02 63.6652 442.482 75.8948 431.395 85.2668V85.2851ZM278.423 105.058C278.423 97.4412 274.993 92.0936 268.143 89.0156C264.64 87.2514 258.441 86.3785 249.536 86.3785H230.498V123.959H253.91C260.036 123.959 264.704 123.223 267.914 121.763C274.92 118.684 278.414 113.116 278.414 105.058H278.423ZM266.611 43.5245C266.611 37.0744 264.346 32.3149 259.834 29.2368C256.478 26.8938 252.315 25.7177 247.363 25.7177H230.517V60.8811H245.4C250.939 60.8811 255.249 60.1461 258.312 58.6852C263.851 55.9011 266.63 50.8476 266.63 43.5153L266.611 43.5245ZM310.583 109.239C310.583 122.277 305.696 132.283 295.92 139.239C286.144 146.194 274.397 149.676 260.687 149.676H202.483C201.456 149.676 200.621 149.346 199.97 148.684C199.31 148.023 198.989 147.26 198.989 146.378V3.29834C198.989 2.41627 199.319 1.65365 199.97 0.992092C200.621 0.330538 201.474 -0.000239212 202.492 -0.000239212H247.564C263.026 -0.000239212 275.14 3.15133 283.888 9.45448C293.517 16.6305 298.332 26.1587 298.332 38.0299C298.332 53.5581 292.123 64.1797 279.725 69.8948V70.7769C300.294 75.6099 310.574 88.4275 310.574 109.239H310.583Z" fill="white"></path></svg> 